<?xml version="1.0" encoding="UTF-8"?>
<svg width="73px" height="73px" viewBox="0 0 73 73" version="1.1" xmlns="http://www.w3.org/2000/svg" xmlns:xlink="http://www.w3.org/1999/xlink">
    <!-- Generator: Sketch 52.6 (67491) - http://www.bohemiancoding.com/sketch -->
    <title>Icon3Camera</title>
    <desc>Created with Sketch.</desc>
    <defs>
        <linearGradient x1="50%" y1="0%" x2="50%" y2="100%" id="linearGradient-1">
            <stop stop-color="#FADE91" offset="0%"></stop>
            <stop stop-color="#F2B958" offset="100%"></stop>
        </linearGradient>
        <circle id="path-2" cx="27.5" cy="27.5" r="27.5"></circle>
        <filter x="-26.4%" y="-22.7%" width="152.7%" height="152.7%" filterUnits="objectBoundingBox" id="filter-3">
            <feOffset dx="0" dy="2" in="SourceAlpha" result="shadowOffsetOuter1"></feOffset>
            <feGaussianBlur stdDeviation="4.5" in="shadowOffsetOuter1" result="shadowBlurOuter1"></feGaussianBlur>
            <feColorMatrix values="0 0 0 0 0   0 0 0 0 0   0 0 0 0 0  0 0 0 0.5 0" type="matrix" in="shadowBlurOuter1"></feColorMatrix>
        </filter>
    </defs>
    <g id="Designs" stroke="none" stroke-width="1" fill="none" fill-rule="evenodd">
        <g id="Icon3Camera" transform="translate(9.000000, 7.000000)">
            <g id="Oval-Copy">
                <use fill="black" fill-opacity="1" filter="url(#filter-3)" xlink:href="#path-2"></use>
                <use fill="url(#linearGradient-1)" fill-rule="evenodd" xlink:href="#path-2"></use>
            </g>
            <g id="photo-camera-copy" transform="translate(13.000000, 14.000000)" fill="#FFFFFF">
                <path d="M27.8675945,4.97305745 C27.1122873,4.22192871 26.2012313,3.84625909 25.1337918,3.84625909 L21.7504364,3.84625909 L20.9802632,1.80315102 C20.7888573,1.31244935 20.4391104,0.889209299 19.9303348,0.533483482 C19.4217708,0.177915531 18.9007214,0 18.3669752,0 L10.6334479,0 C10.0997546,0 9.57859948,0.177915531 9.07003545,0.533483482 C8.56147143,0.889209299 8.21167164,1.31244935 8.02031868,1.80315102 L7.25003966,3.84625909 L3.86668429,3.84625909 C2.79913894,3.84625909 1.88803006,4.22192871 1.13272281,4.97305745 C0.377574269,5.72423882 0,6.63060294 0,7.69236031 L0,21.1537935 C0,22.2156035 0.377574269,23.1220729 1.13272281,23.8730438 C1.88803006,24.6243304 2.79919184,25 3.86668429,25 L25.1334214,25 C26.200861,25 27.111864,24.6243304 27.8672242,23.8730438 C28.6223198,23.1220729 28.9999999,22.2156035 28.9999999,21.1537935 L28.9999999,7.69236031 C29.0002115,6.63060294 28.6225314,5.72423882 27.8675945,4.97305745 Z M19.2805706,19.1783049 C17.9564419,20.4954377 16.3630859,21.1541619 14.5000793,21.1541619 C12.6370727,21.1541619 11.0438225,20.4954377 9.71958805,19.1783049 C8.39535356,17.8613827 7.73336858,16.2761401 7.73336858,14.4234716 C7.73336858,12.5702243 8.39556518,10.9855079 9.71958805,9.66832251 C11.0436638,8.35113716 12.6371256,7.69267605 14.5000793,7.69267605 C16.363033,7.69267605 17.9564419,8.35129503 19.2805706,9.66832251 C20.6047522,10.98535 21.2668429,12.5702243 21.2668429,14.4234716 C21.2668429,16.2761401 20.6048051,17.8612248 19.2805706,19.1783049 Z" id="Shape" fill-rule="nonzero"></path>
                <path d="M14.5,10 C13.260404,10 12.2005278,10.4401136 11.3203167,11.3204502 C10.4401056,12.2006774 10,13.2604087 10,14.500301 C10,15.7397007 10.4401056,16.7995962 11.3203167,17.6798234 C12.2005278,18.5598864 13.2603493,19 14.5,19 C15.7394318,19 16.7994175,18.5598864 17.6796286,17.6798234 C18.5598397,16.7995962 19,15.7397554 19,14.500301 C19,13.2604635 18.5598397,12.2007321 17.6796286,11.3204502 C16.7994722,10.4401683 15.7394318,10 14.5,10 Z" id="Path"></path>
            </g>
        </g>
    </g>
</svg>