<?xml version="1.0" encoding="UTF-8"?>
<svg width="33px" height="33px" viewBox="0 0 33 33" version="1.1" xmlns="http://www.w3.org/2000/svg" xmlns:xlink="http://www.w3.org/1999/xlink">
    <!-- Generator: Sketch 52.6 (67491) - http://www.bohemiancoding.com/sketch -->
    <title>Icon5ExtraInfo</title>
    <desc>Created with Sketch.</desc>
    <g id="Designs" stroke="none" stroke-width="1" fill="none" fill-rule="evenodd">
        <g id="Icon5ExtraInfo" transform="translate(16.500000, 16.500000) rotate(-360.000000) translate(-16.500000, -16.500000) " fill="#C6C6C6">
            <path d="M16.5,0 C7.38736394,0 0,7.38736394 0,16.5 C0,25.6126361 7.38736394,33 16.5,33 C25.6126361,33 33,25.6126361 33,16.5 C32.9896415,7.39168002 25.60832,0.0103585379 16.5,0 Z M9.42857143,19.4464286 C7.80141774,19.4464286 6.48214286,18.1271537 6.48214286,16.5 C6.48214286,14.8728463 7.80141774,13.5535714 9.42857143,13.5535714 C11.0557251,13.5535714 12.375,14.8728463 12.375,16.5 C12.3729858,18.1265782 11.0551496,19.4444144 9.42857143,19.4464286 Z M16.5,19.4464286 C14.8728463,19.4464286 13.5535714,18.1271537 13.5535714,16.5 C13.5535714,14.8728463 14.8728463,13.5535714 16.5,13.5535714 C18.1271537,13.5535714 19.4464286,14.8728463 19.4464286,16.5 C19.4444144,18.1265782 18.1265782,19.4444144 16.5,19.4464286 Z M23.5714286,19.4464286 C21.9442749,19.4464286 20.625,18.1271537 20.625,16.5 C20.625,14.8728463 21.9442749,13.5535714 23.5714286,13.5535714 C25.1985823,13.5535714 26.5178571,14.8728463 26.5178571,16.5 C26.515843,18.1265782 25.1980067,19.4444144 23.5714286,19.4464286 Z" id="Shape" fill-rule="nonzero"></path>
            <path d="M11,16.5 C11,17.3283691 10.3283691,18 9.5,18 C8.67163087,18 8,17.3283691 8,16.5 C8,15.6716309 8.67163087,15 9.5,15 C10.3283691,15 11,15.6716309 11,16.5 Z" id="Path"></path>
            <path d="M25,16.5 C25,17.3283691 24.3283691,18 23.5,18 C22.6716309,18 22,17.3283691 22,16.5 C22,15.6716309 22.6716309,15 23.5,15 C24.3283691,15 25,15.6716309 25,16.5 Z" id="Path"></path>
            <path d="M18,16.5 C18,17.3283691 17.3283691,18 16.5,18 C15.6716309,18 15,17.3283691 15,16.5 C15,15.6716309 15.6716309,15 16.5,15 C17.3283691,15 18,15.6716309 18,16.5 Z" id="Path"></path>
        </g>
    </g>
</svg>