<?xml version="1.0" encoding="UTF-8"?>
<svg width="72px" height="87px" viewBox="0 0 72 87" version="1.1" xmlns="http://www.w3.org/2000/svg" xmlns:xlink="http://www.w3.org/1999/xlink">
    <!-- Generator: Sketch 52.6 (67491) - http://www.bohemiancoding.com/sketch -->
    <title>MapMarker</title>
    <desc>Created with Sketch.</desc>
    <defs>
        <linearGradient x1="50%" y1="0%" x2="50%" y2="100%" id="linearGradient-1">
            <stop stop-color="#F3C546" offset="0%"></stop>
            <stop stop-color="#E69301" offset="100%"></stop>
        </linearGradient>
        <path d="M23,62.9430079 C38.3333333,44.7827021 46,31.4683662 46,23 C46,10.2974508 35.7025492,-6.03961325e-14 23,-6.03961325e-14 C10.2974508,-6.03961325e-14 1.0658141e-14,10.2974508 1.0658141e-14,23 C1.0658141e-14,31.4683662 7.66666667,44.7827021 23,62.9430079 Z" id="path-2"></path>
        <filter x="-44.6%" y="-29.4%" width="189.1%" height="165.1%" filterUnits="objectBoundingBox" id="filter-3">
            <feOffset dx="0" dy="2" in="SourceAlpha" result="shadowOffsetOuter1"></feOffset>
            <feGaussianBlur stdDeviation="6.5" in="shadowOffsetOuter1" result="shadowBlurOuter1"></feGaussianBlur>
            <feColorMatrix values="0 0 0 0 0.359879889   0 0 0 0 0.359879889   0 0 0 0 0.359879889  0 0 0 0.5 0" type="matrix" in="shadowBlurOuter1"></feColorMatrix>
        </filter>
    </defs>
    <g id="Designs" stroke="none" stroke-width="1" fill="none" fill-rule="evenodd">
        <g id="Feed-Copy-8" transform="translate(-191.000000, -253.000000)">
            <g id="MapMarker" transform="translate(204.000000, 264.000000)">
                <g id="Oval-Copy-3">
                    <use fill="black" fill-opacity="1" filter="url(#filter-3)" xlink:href="#path-2"></use>
                    <use fill="url(#linearGradient-1)" fill-rule="evenodd" xlink:href="#path-2"></use>
                </g>
                <path d="M23.1093071,33.952 C22.2330159,33.952 21.3720217,33.8786317 20.5262989,33.731893 C19.680576,33.5851543 18.8654336,33.3699408 18.0808473,33.086246 C17.296261,32.8025512 16.5575382,32.4699484 15.8646568,32.0884278 C15.1717754,31.7069072 14.5502294,31.2813713 14,30.8118075 L18.432381,26.1748877 C18.9418526,26.703147 19.6194397,27.1727038 20.4651626,27.5835722 C21.3108855,27.9944406 22.1820689,28.1998717 23.0787389,28.1998717 C23.4863162,28.1998717 23.8582249,28.1313946 24.1944762,27.9944385 C24.5307275,27.8574824 24.6988506,27.6031391 24.6988506,27.2314011 C24.6988506,27.0357495 24.6428095,26.8694481 24.5307258,26.732492 C24.418642,26.5955359 24.2199511,26.4536906 23.934647,26.3069519 C23.6493429,26.1602132 23.2570556,25.998803 22.7577734,25.8227166 C22.2584912,25.6466301 21.6318505,25.441199 20.8778325,25.2064171 C20.1441934,24.9716352 19.4411331,24.6928358 18.7686305,24.3700107 C18.096128,24.0471856 17.5000551,23.650997 16.9803941,23.1814332 C16.460733,22.7118693 16.0480672,22.1493794 15.7423842,21.4939465 C15.4367013,20.8385137 15.2838621,20.0510278 15.2838621,19.1314652 C15.2838621,17.8401647 15.5589726,16.7445321 16.109202,15.8445348 C16.6594313,14.9445374 17.3675863,14.2059637 18.233688,13.6287914 C19.0997898,13.0516192 20.072866,12.6358658 21.1529458,12.3815187 C22.2330257,12.1271716 23.3029,12 24.362601,12 C25.7891215,12 27.2410939,12.2641257 28.7185616,12.792385 C30.1960293,13.3206444 31.4951624,14.0836742 32.616,15.0814973 L28.0919146,19.512984 C27.6028219,18.9260292 27.0016544,18.4809284 26.2883941,18.1776684 C25.5751338,17.8744085 24.9332092,17.7227807 24.362601,17.7227807 C23.8327505,17.7227807 23.4048008,17.796149 23.0787389,17.9428877 C22.7526771,18.0896264 22.5896486,18.329296 22.5896486,18.6619037 C22.5896486,18.9749463 22.7577717,19.2097247 23.094023,19.366246 C23.4302743,19.5227673 23.9754007,19.7184159 24.7294187,19.9531979 C25.5038156,20.1879798 26.318958,20.4618879 27.1748703,20.7749305 C28.0307826,21.087973 28.8204518,21.493944 29.5439015,21.9928556 C30.2673512,22.4917672 30.863424,23.1031693 31.3321379,23.8270802 C31.8008518,24.5509911 32.0352053,25.450975 32.0352053,26.5270588 C32.0352053,27.7792291 31.7753786,28.8699704 31.2557176,29.7993155 C30.7360565,30.7286606 30.0533748,31.5014729 29.2076519,32.1177754 C28.361929,32.7340779 27.4092314,33.1938523 26.3495304,33.4971123 C25.2898294,33.8003723 24.2097658,33.952 23.1093071,33.952 Z" id="S-Copy" stroke="#DAA64B" fill="#FFFFFF"></path>
            </g>
        </g>
    </g>
</svg>